<?xml version="1.0" standalone="no"?>
<!DOCTYPE svg PUBLIC "-//W3C//DTD SVG 20010904//EN"
 "http://www.w3.org/TR/2001/REC-SVG-20010904/DTD/svg10.dtd">
<svg version="1.0" xmlns="http://www.w3.org/2000/svg"
 width="512.000000pt" height="512.000000pt" viewBox="0 0 512.000000 512.000000"
 preserveAspectRatio="xMidYMid meet">
<metadata>
Created by potrace 1.11, written by Peter Selinger 2001-2013
</metadata>
<g transform="translate(0.000000,512.000000) scale(0.100000,-0.100000)"
fill="#000000" stroke="none">
<path d="M0 2560 l0 -2560 2103 1 c1172 1 2074 5 2038 10 -304 39 -536 230
-634 521 -30 89 -32 100 -32 253 0 140 3 169 23 235 88 278 272 454 551 527
123 32 339 36 466 9 245 -54 422 -181 514 -370 50 -104 70 -186 78 -316 24
-447 -260 -794 -703 -859 -40 -6 68 -9 329 -10 l387 -1 0 2560 0 2560 -2560 0
-2560 0 0 -2560z m775 2533 c281 -2 520 -5 533 -8 12 -3 22 -12 22 -21 0 -22
-330 -540 -773 -1216 -54 -81 -97 -148 -97 -150 0 -9 649 10 678 20 63 21 100
52 126 104 14 29 26 59 26 68 0 9 6 25 14 36 14 18 15 18 26 -11 13 -33 0
-158 -26 -257 -24 -94 19 -88 -592 -82 -295 3 -547 7 -559 10 -46 9 -66 -25
391 684 148 228 278 431 291 450 64 97 155 245 155 252 0 12 -431 10 -530 -2
-143 -18 -202 -61 -238 -171 -18 -56 -36 -72 -46 -41 -8 23 30 295 45 330 7
18 14 22 27 15 9 -4 247 -9 527 -10z m1170 -1403 c128 -15 197 -35 302 -86
163 -80 278 -212 340 -389 26 -76 28 -89 28 -260 0 -205 -13 -264 -86 -405
-104 -200 -279 -336 -505 -392 -119 -29 -323 -31 -439 -4 -235 54 -404 184
-506 391 -188 378 -64 835 281 1042 147 88 369 127 585 103z m1321 -881 c11
-18 -17 -29 -73 -29 -40 0 -58 -5 -80 -24 l-27 -24 -9 -183 c-12 -261 -2 -981
15 -1039 22 -74 51 -84 243 -88 151 -3 163 -2 204 20 55 28 78 59 95 124 8 31
18 50 29 52 14 3 17 -5 17 -45 0 -82 -27 -234 -44 -252 -22 -21 -84 -23 -571
-14 -354 7 -410 10 -410 23 0 11 15 17 50 21 70 8 83 16 97 57 13 40 25 1190
13 1270 -3 23 -17 54 -29 69 -19 22 -33 27 -85 31 -61 4 -78 13 -66 32 9 15
622 14 631 -1z"/>
<path d="M1623 3585 c-73 -20 -127 -49 -181 -98 -119 -110 -173 -267 -173
-507 0 -251 67 -437 211 -580 167 -167 399 -213 597 -119 188 90 290 358 261
689 -29 326 -209 566 -466 619 -71 15 -185 13 -249 -4z"/>
<path d="M4088 1451 c-115 -37 -210 -116 -262 -219 -55 -109 -71 -191 -70
-377 0 -143 4 -183 22 -249 80 -289 270 -466 528 -491 238 -24 415 113 486
374 31 113 31 391 0 506 -65 239 -218 408 -417 460 -80 21 -215 19 -287 -4z"/>
</g>
</svg>
